<?xml version="1.0" standalone="no"?>
<!DOCTYPE svg PUBLIC "-//W3C//DTD SVG 20010904//EN"
 "http://www.w3.org/TR/2001/REC-SVG-20010904/DTD/svg10.dtd">
<svg version="1.0" xmlns="http://www.w3.org/2000/svg"
 width="1064.000000pt" height="1064.000000pt" viewBox="0 0 1064.000000 1064.000000"
 preserveAspectRatio="xMidYMid meet">
<metadata>
Created by potrace 1.11, written by Peter Selinger 2001-2013
</metadata>
<g transform="translate(0.000000,1064.000000) scale(0.100000,-0.100000)"
fill="#000000" stroke="none">
<path d="M53 7748 c108 -167 172 -265 242 -373 72 -110 122 -188 248 -383 37
-57 67 -107 67 -112 0 -4 4 -10 9 -12 7 -3 117 -165 131 -193 3 -6 104 -163
225 -348 121 -185 224 -346 230 -357 5 -11 13 -20 17 -20 5 0 8 -4 8 -10 0 -5
45 -78 100 -160 55 -83 100 -153 100 -154 0 -2 41 -65 90 -140 50 -75 90 -140
90 -145 0 -5 3 -11 8 -13 7 -3 72 -95 72 -103 0 -2 55 -89 123 -192 247 -376
277 -423 277 -432 0 -5 3 -11 8 -13 8 -3 45 -55 55 -78 4 -8 43 -69 87 -135
43 -66 107 -163 140 -215 131 -204 229 -355 237 -365 5 -5 20 -28 33 -50 13
-22 27 -42 30 -45 4 -3 9 -10 11 -16 2 -5 65 -103 139 -217 74 -114 142 -219
150 -234 8 -16 18 -30 21 -33 8 -7 89 -131 89 -136 0 -3 5 -10 10 -17 6 -7 44
-63 84 -125 l73 -113 33 53 c19 29 39 62 45 73 6 11 41 65 77 120 105 161 149
231 309 482 84 131 180 281 214 333 119 184 200 312 224 353 13 23 30 47 37
54 7 7 16 22 19 33 3 11 11 20 16 20 5 0 9 5 9 10 0 6 30 56 66 113 37 56 90
138 119 182 28 44 58 91 65 105 7 14 16 27 20 30 3 3 24 34 46 69 21 35 46 74
54 86 24 38 100 158 113 180 7 11 15 22 18 25 3 3 23 34 45 70 21 36 43 70 47
75 9 11 448 698 480 750 7 11 14 22 17 25 7 7 29 43 37 60 4 8 9 17 13 20 3 3
24 34 46 70 21 36 41 67 44 70 3 3 40 59 81 125 183 290 274 430 281 433 4 2
8 8 8 12 0 11 123 204 132 208 5 2 8 8 8 14 0 5 10 24 23 41 12 18 27 41 34
52 7 11 45 71 85 133 40 63 80 124 88 137 18 29 96 150 190 298 l69 107 -3235
0 -3234 0 53 -82z m5398 -545 c-38 -60 -129 -202 -203 -316 -73 -114 -137
-216 -143 -227 -5 -11 -13 -20 -17 -20 -5 0 -8 -5 -8 -11 0 -6 -10 -25 -23
-42 -12 -17 -26 -39 -32 -49 -11 -20 -91 -144 -165 -258 -27 -41 -62 -96 -77
-122 l-28 -48 -697 4 c-384 3 -698 2 -698 -2 0 -4 11 -24 25 -44 14 -20 25
-42 25 -47 0 -6 5 -11 10 -11 6 0 10 -6 10 -14 0 -8 3 -16 8 -18 10 -4 62 -85
62 -97 0 -5 4 -11 8 -13 4 -1 19 -21 32 -43 13 -22 57 -91 97 -152 40 -62 73
-117 73 -122 0 -5 3 -11 8 -13 4 -1 38 -52 77 -113 38 -60 79 -123 90 -140 12
-16 25 -37 28 -45 4 -8 34 -55 67 -105 33 -49 63 -96 66 -102 6 -12 -81 -164
-98 -171 -4 -2 -8 -8 -8 -13 0 -8 -13 -30 -72 -118 -10 -14 -21 -33 -25 -41
-3 -8 -9 -17 -13 -20 -3 -3 -24 -34 -45 -70 -22 -36 -43 -69 -47 -75 -11 -14
-37 -54 -148 -230 -52 -82 -97 -152 -100 -155 -3 -3 -19 -27 -35 -54 -45 -73
-58 -94 -156 -244 l-47 -73 -46 71 c-25 39 -46 75 -46 80 0 6 -4 10 -9 10 -5
0 -14 14 -21 30 -7 17 -16 30 -20 30 -4 0 -13 14 -20 30 -7 17 -16 30 -21 30
-5 0 -9 5 -9 11 0 6 -11 25 -25 43 -14 18 -25 38 -25 44 0 7 -4 12 -10 12 -5
0 -10 4 -10 9 0 5 -46 79 -102 165 -57 85 -134 204 -172 263 -38 60 -99 153
-136 209 -37 55 -69 104 -71 110 -2 5 -35 56 -73 114 -38 58 -98 150 -134 205
-36 55 -89 137 -118 181 -30 45 -54 86 -54 93 0 6 -4 11 -8 11 -5 0 -15 12
-23 28 -8 15 -22 36 -31 46 -10 11 -18 25 -18 31 0 7 -9 20 -20 30 -11 10 -20
22 -20 26 0 5 -18 34 -39 66 -39 58 -150 229 -271 418 -35 55 -67 102 -70 105
-8 7 -28 41 -47 78 -9 17 -20 32 -25 32 -4 0 -8 6 -8 14 0 8 -3 16 -8 18 -4 2
-23 28 -42 58 -19 30 -75 118 -125 195 -51 77 -119 183 -153 235 -34 52 -66
100 -72 107 -5 7 -10 15 -10 17 0 3 -20 35 -45 72 -25 36 -45 68 -45 70 0 3
-11 20 -23 37 -13 18 -34 49 -46 70 l-23 37 2281 0 2281 0 -69 -107z"/>
<path d="M7352 7781 c-18 -27 -32 -53 -32 -59 0 -6 -4 -12 -8 -14 -10 -4 -122
-176 -122 -188 0 -4 -4 -10 -8 -12 -4 -1 -26 -32 -49 -68 -124 -197 -353 -556
-360 -565 -5 -5 -35 -53 -68 -105 -86 -137 -123 -193 -135 -207 -5 -7 -10 -14
-10 -17 0 -5 -74 -122 -111 -176 -5 -8 -50 -78 -99 -155 -49 -77 -93 -145 -98
-151 -5 -5 -15 -21 -22 -35 -12 -22 -72 -117 -116 -183 -41 -62 -50 -77 -94
-148 -25 -40 -53 -82 -62 -92 -10 -11 -18 -23 -18 -27 0 -6 -55 -96 -77 -125
-4 -5 -13 -19 -20 -30 -17 -28 -95 -151 -113 -179 -8 -12 -33 -51 -55 -86 -21
-35 -43 -68 -47 -74 -21 -25 -98 -149 -103 -166 -4 -10 -10 -19 -13 -19 -4 0
-18 -20 -32 -45 -14 -25 -28 -45 -32 -45 -5 0 -8 -4 -8 -10 0 -5 -30 -55 -67
-112 -37 -57 -72 -111 -78 -121 -33 -58 -180 -283 -187 -285 -4 -2 -8 -8 -8
-13 0 -6 -18 -37 -40 -70 -22 -33 -40 -65 -40 -70 0 -5 -4 -9 -10 -9 -5 0 -10
-7 -10 -15 0 -8 -4 -15 -10 -15 -5 0 -10 -7 -10 -15 0 -8 -3 -15 -8 -15 -4 0
-12 -9 -17 -19 -16 -32 -63 -107 -150 -241 -45 -69 -92 -143 -105 -165 -14
-22 -28 -44 -33 -50 -12 -15 -102 -157 -117 -184 -7 -14 -17 -30 -22 -35 -11
-14 -80 -121 -133 -206 -21 -36 -43 -69 -48 -75 -4 -5 -46 -70 -92 -142 l-84
-133 3235 0 3234 0 -17 28 c-10 15 -53 80 -95 145 -43 64 -78 122 -78 127 0 6
-4 10 -10 10 -5 0 -10 7 -10 15 0 8 -4 15 -10 15 -5 0 -10 4 -10 8 0 5 -45 77
-100 161 -55 83 -100 155 -100 160 0 5 -3 11 -7 13 -11 4 -83 116 -83 127 0 5
-3 11 -7 13 -11 4 -103 146 -103 157 0 5 -4 11 -8 13 -8 3 -92 127 -92 135 0
3 -18 30 -39 61 -73 106 -381 584 -381 591 0 5 -9 16 -20 26 -11 10 -20 21
-20 26 0 4 -40 68 -90 143 -49 75 -90 138 -90 141 0 3 -5 11 -11 18 -5 7 -38
55 -71 107 -34 52 -88 135 -120 183 -32 49 -58 93 -58 98 0 5 -3 9 -7 9 -5 0
-24 27 -43 60 -19 33 -38 60 -42 60 -5 0 -8 4 -8 10 0 5 -36 64 -80 131 -44
66 -80 122 -80 125 0 3 -5 10 -10 17 -6 7 -53 77 -105 157 -177 275 -229 355
-307 475 -43 66 -82 127 -88 135 -66 101 -171 264 -190 295 -13 22 -28 45 -33
50 -13 17 -427 657 -427 661 0 3 -5 10 -11 17 -5 7 -52 76 -103 155 l-92 142
-32 -49z m59 -948 c13 -21 27 -42 32 -48 4 -5 23 -35 43 -65 19 -30 80 -126
137 -213 56 -86 152 -235 214 -330 61 -94 116 -177 122 -184 6 -7 11 -15 11
-18 0 -3 27 -46 60 -95 33 -49 60 -94 60 -100 0 -5 4 -10 8 -10 5 0 15 -12 23
-27 8 -15 35 -59 61 -97 41 -61 45 -72 36 -97 -5 -16 -14 -32 -19 -35 -5 -3
-9 -11 -9 -19 0 -7 -15 -46 -34 -87 -18 -40 -70 -156 -116 -258 -45 -102 -93
-210 -107 -240 -14 -30 -41 -91 -60 -135 -19 -43 -39 -85 -45 -92 -6 -7 -8
-13 -4 -13 4 0 -3 -19 -15 -42 -12 -23 -36 -76 -54 -118 l-32 -76 399 2 c219
1 406 5 414 8 10 4 13 2 8 -6 -5 -7 -3 -8 6 -3 6 4 42 7 79 6 36 -1 71 -2 76
-2 194 3 256 3 259 0 12 -13 160 -245 177 -276 7 -13 16 -23 21 -23 4 0 8 -4
8 -9 0 -5 79 -130 175 -278 216 -332 295 -454 318 -493 l19 -30 -2281 0 -2281
0 46 73 c26 39 61 95 79 122 162 252 235 368 235 375 0 5 4 10 8 12 7 2 67 92
122 183 15 24 152 238 240 375 25 38 86 133 135 210 50 77 111 173 137 213 26
39 51 79 55 87 4 8 28 47 55 87 26 40 48 77 48 82 0 6 6 14 13 18 7 4 21 25
32 46 11 21 28 45 38 54 9 9 17 20 17 25 0 4 24 45 54 91 30 45 108 168 175
272 66 105 125 197 131 205 30 43 211 327 217 340 4 8 9 17 13 20 6 4 69 104
95 150 6 10 22 35 37 56 32 48 132 205 218 341 36 56 66 103 67 103 1 0 12
-17 24 -37z"/>
</g>
</svg>
